<svg id="Layer_1" data-name="Layer 1" xmlns="http://www.w3.org/2000/svg" viewBox="0 0 582.36 107.52"><defs><style>.cls-1{fill:none;stroke:#231f20;stroke-miterlimit:10;stroke-width:4px;}.cls-2{fill:#231f20;}</style></defs><g id="decoration_3" data-name="decoration 3"><rect class="cls-1" x="350.93" y="586.91" width="10" height="10" transform="translate(-378.61 -138.71) rotate(-45)"/><rect class="cls-1" x="345.15" y="631.11" width="21.54" height="21.54" transform="translate(-413.95 -124.07) rotate(-45)"/><path class="cls-2" d="M645.72,620.66c-5,.21-10.07.31-15.11.47s-10.08.22-15.12.29l-15.11.17-15.11.06h-.83l-.59-.59L578,615.18h2.83l-16.56,16.58-1.42,1.42-1.42-1.42-10.54-10.53h2.85l-4.94,4.95v-2.86l4.8,4.8h-2.87l9.57-9.58v2.88l-9.9-9.9h2.88l-9.57,9.57-.6.6h-.84l-107.42,0,1.47-.61-15.51,15.53-1.48,1.48-1.49-1.48-45.18-45.15L350,568.93l-.61-.49-.09-.07h-.05l-.09,0a.55.55,0,0,1-.15-.08c-.14,0-.36-.09-.52-.16s-.38,0-.57-.06a2.86,2.86,0,0,0-2.07.86l-5.65,5.65L329,585.84v-3L380.15,634h-3.08l14.5-14.5v3.08l-14.3-14.27h3.11l-8.49,8.49v-3.11l27.6,27.58h-3.13l29-29v3.15l-21.13-21.1h3.18l-7,7v-3.17l14,14.12,1.57,1.6-1.59,1.58-28.22,28.25L372,657.79l-7.05,7.06-3.53,3.53-.44.44-.22.22-.06.06-.23.21-.12.09a6.37,6.37,0,0,1-1.24.89,9,9,0,0,1-.93.47l-.87.27a8.38,8.38,0,0,1-1.8.24,7.43,7.43,0,0,1-3.48-.91,7.35,7.35,0,0,1-1.48-1.05c-.27-.23-.34-.33-.51-.49l-.44-.44-3.53-3.53L339,657.79l-14.12-14.13-28.22-28.25-1.59-1.58,1.57-1.6,14-14.12v3.17l-7-7h3.18l-21.13,21.1v-3.15l29,29h-3.13l27.6-27.58v3.11l-8.49-8.49h3.11l-14.3,14.27v-3.08l14.5,14.5h-3.08l51.2-51.16v3l-11.28-11.3-5.65-5.65a2.88,2.88,0,0,0-4.15,0l-22.59,22.58L293.2,636.66l-1.49,1.48-1.48-1.48-15.51-15.53,1.47.61-107.42,0h-.84l-.6-.6-9.57-9.57h2.88l-9.9,9.9v-2.88l9.57,9.58h-2.87l4.8-4.8v2.86l-4.94-4.95h2.85l-10.54,10.53-1.42,1.42-1.42-1.42-16.56-16.58H133l-5.89,5.89-.59.59h-.83l-15.11-.06-15.11-.17q-7.56-.1-15.12-.29c-5-.16-10.08-.26-15.11-.47a1,1,0,0,1-1-1,1,1,0,0,1,1-1c5-.22,10.07-.32,15.11-.48s10.08-.22,15.12-.29l15.11-.17,15.11-.06-1.41.58,5.89-5.89,1.41-1.42,1.42,1.42,16.57,16.56h-2.84l10.53-10.54,1.42-1.42,1.43,1.42,4.95,5,1.43,1.43-1.43,1.43-4.79,4.8-1.43,1.43L157.44,631l-9.57-9.56L146.43,620l1.44-1.44,9.89-9.9,1.44-1.44,1.44,1.44,9.58,9.57-1.45-.6,107.42,0h.87l.61.61,15.53,15.51h-3l45.15-45.18L358,565.92a7.24,7.24,0,0,1,5.07-2.16c.47,0,.94.07,1.41.13a14.24,14.24,0,0,1,1.37.41,13.34,13.34,0,0,1,1.41.79l.38.32.2.15.09.08.05,0,.21.19,5.64,5.64,11.3,11.29,1.52,1.52-1.52,1.52L333.93,637l-1.54,1.54L330.85,637l-14.5-14.5L314.8,621l1.55-1.54,14.27-14.3,1.55-1.55,1.56,1.55,8.49,8.49,1.55,1.55-1.55,1.56-27.58,27.6-1.57,1.56-1.56-1.56-29-29-1.58-1.57,1.58-1.58,21.1-21.12,1.59-1.59,1.59,1.59,7,7,1.58,1.58-1.57,1.59L299.86,615.4v-3.18l28.25,28.23,14.13,14.11,7.06,7.06,3.53,3.53.44.44a3.73,3.73,0,0,0,.4.37,2.3,2.3,0,0,0,.55.39,2.89,2.89,0,0,0,1.29.35c.22-.07.46,0,.67-.1a1.68,1.68,0,0,1,.32-.09c.09,0,.12-.08.18-.09s.49-.32.78-.56l.12-.1c.17-.14-.18.18-.14.13l0,0,.05-.05.23-.22.44-.44,3.53-3.53,7.06-7.06,14.13-14.11,28.25-28.23v3.18L397.2,601.27l-1.57-1.59,1.58-1.58,7-7,1.59-1.59,1.59,1.59,21.1,21.12,1.58,1.58-1.58,1.57-29,29-1.56,1.56-1.57-1.56-27.58-27.6-1.55-1.56,1.55-1.55,8.49-8.49,1.56-1.55,1.55,1.55,14.27,14.3L396.2,621l-1.55,1.54L380.15,637l-1.54,1.54L377.07,637l-51.16-51.2-1.52-1.52,1.52-1.52,11.3-11.29,5.64-5.64a7.15,7.15,0,0,1,5.12-2.11,13.68,13.68,0,0,1,1.42.15,12.77,12.77,0,0,1,1.37.44c.25.12.49.25.73.39l.35.21.18.1.1.08.39.32.19.16.1.08.2.18,0,0,22.58,22.59,45.15,45.18h-3l15.53-15.51.61-.61h.87l107.42,0-1.45.6,9.58-9.57,1.44-1.44,1.44,1.44,9.89,9.9,1.44,1.44-1.44,1.44L553.56,631l-1.44,1.43L550.69,631l-4.79-4.8-1.43-1.43,1.43-1.43,5-5,1.43-1.42,1.42,1.42,10.53,10.54h-2.84L578,612.35l1.42-1.42,1.41,1.42,5.89,5.89-1.41-.58,15.11.06,15.11.17q7.56.11,15.12.29c5,.16,10.08.26,15.11.48a1,1,0,0,1,1,1A1,1,0,0,1,645.72,620.66Z" transform="translate(-64.32 -563.76)"/></g></svg>