<svg id="Isolation_Mode" data-name="Isolation Mode" xmlns="http://www.w3.org/2000/svg" viewBox="0 0 511.9 307.65"><defs><style>.cls-1,.cls-3{fill:none;}.cls-2,.cls-4{fill:#262424;}.cls-3,.cls-4{stroke:#262424;}.cls-3{stroke-linecap:round;stroke-linejoin:round;stroke-width:0.64px;}.cls-4{stroke-miterlimit:10;stroke-width:0.21px;}</style></defs><path class="cls-1" d="M256.05,95.52C114.69,95.52.1,164.39.1,249.35s114.59,153.82,256,153.82S512,334.3,512,249.35,397.41,95.52,256.05,95.52" transform="translate(-0.1 -95.52)"/><path class="cls-2" d="M157,329.39l-.59,2.77-3.2-.68-2,22,.08,0,7.82-14.4,1.28,16.33.08,0,7.15-20.9-3.2-.67.59-2.77,7.42,1.57-.59,2.77-1.76-.38-9.17,26.77-2.46-.53-1.15-13.71-6.64,12.06-2.46-.52L150.74,331l-1.76-.37.59-2.77Z" transform="translate(-0.1 -95.52)"/><path class="cls-2" d="M173,348.11c1.14-7.59,5.41-15.12,12.29-14.09s8.75,9.48,7.61,17.08-5.41,15.12-12.29,14.09S171.84,355.71,173,348.11Zm17.2,2.58c.86-5.69,0-13.07-5.33-13.87s-8.32,6-9.17,11.7,0,13.07,5.33,13.87S189.33,356.39,190.18,350.69Z" transform="translate(-0.1 -95.52)"/><path class="cls-2" d="M218.48,368.94l-4.59-.43-6.27-14.45-4.05-.39-1,10.9,4,.38-.28,2.81-10-1,.27-2.81,3.42.33,2.34-24.16-3.38-.83.26-2.66a14.19,14.19,0,0,0,3.78,1c2.13.2,4.36-.19,6.48,0,4.13.39,7.75,3,7.22,8.55-.41,4.27-2.8,6.77-6.21,7.61l5.33,12,3,.28Zm-14.64-18,2.16.26c5.29.61,7.57-1.66,7.88-4.92.37-3.81-1.78-5.55-4.7-5.83a32.56,32.56,0,0,0-4.33-.06Z" transform="translate(-0.1 -95.52)"/><path class="cls-2" d="M226.92,342.32l-3.27-1,.2-2.37a26,26,0,0,0,4,.78c1.63.08,3.25-.45,5.18-.36,6.08.28,11,5.25,10.47,15.83-.53,11.09-5.32,14.71-10.93,14.45-1.89-.08-3.75-.62-5.61-.45l-4.34.4-.25-2.84,3.46-.24Zm1.46,24.32,4.19.19c4.52.21,7.72-2.68,8.12-11.15.48-10.08-4.43-13.84-8.14-13.5l-3,.26Z" transform="translate(-0.1 -95.52)"/><path class="cls-2" d="M255.82,367.49l6.29,0,0,2.83-12.36.08,0-2.83,3.48,0L253,343l-3.48-.48,0-2.43a31.16,31.16,0,0,0,4.37.58c2.38,0,4.77-.64,7.16-.65,4,0,7.39,2.22,7.43,7.88s-3.07,9.66-9.19,9.55l-3.56-.08Zm-.09-13,3.47.08c4.49.13,6.61-2.41,6.57-6.65,0-3.79-2.26-5.65-5.19-5.63a40.69,40.69,0,0,0-4.94.64Z" transform="translate(-0.1 -95.52)"/><path class="cls-2" d="M296.88,369.17l-4.61.21L284,356l-4.07.19.53,10.93,4-.18.14,2.83-10,.45-.13-2.82,3.44-.16L276.7,343l-3.46-.35-.12-2.67a14.13,14.13,0,0,0,3.88.43c2.13-.1,4.29-.8,6.43-.9,4.14-.2,8.11,1.9,8.36,7.44.21,4.29-1.8,7.11-5.06,8.42l7,11.15,3-.14ZM279.8,353.43l2.18-.05c5.33-.14,7.26-2.7,7.11-6-.18-3.83-2.56-5.24-5.49-5.1a32.25,32.25,0,0,0-4.3.55Z" transform="translate(-0.1 -95.52)"/><path class="cls-2" d="M300.54,368.87l-.27-2.81,4.17-.41-2.37-24.5-4.16.4-.28-2.81,19.82-1.92.84,8.75-2.59.24-.12-1.3c-.4-4.17-.57-4.61-3.87-4.3l-7,.69.92,9.49,5.72-.55-.41-4.22,2.58-.25,1.13,11.75-2.58.25-.45-4.72-5.72.55L307,365.41l7.8-.76c3.17-.3,3.42-.78,2.88-6.36l-.09-1,2.58-.25.95,9.79Z" transform="translate(-0.1 -95.52)"/><path class="cls-2" d="M337.77,365.2a10,10,0,0,1-6.08-.93l.16,1.87-2.55,0-.38-5.36a18.35,18.35,0,0,0-1.08-4.38l2.41-.82.61,2.36c.91,3.49,2.84,5,6.7,4.46a5.2,5.2,0,0,0,4.58-6.15c-1.33-8.89-14-2-15.63-12.93-.81-5.39,3-8.73,7-9.33a9.45,9.45,0,0,1,4.88.6l0-2,2.57.18.37,5.05a17.3,17.3,0,0,0,1,4.34l-2.47.83a15.87,15.87,0,0,0-1.27-4.56c-1.05-1.63-2.88-1.92-4.74-1.64-2.28.34-5.28,2.12-4.71,5.92,1.21,8,13.94,1.63,15.62,12.82A8.17,8.17,0,0,1,337.77,365.2Z" transform="translate(-0.1 -95.52)"/><path class="cls-2" d="M363.77,360.48a9.92,9.92,0,0,1-6.11-.56l.26,1.86-2.54.12-.7-5.32a18.31,18.31,0,0,0-1.35-4.31l2.36-1,.75,2.32c1.12,3.43,3.14,4.86,6.95,4.05a5.19,5.19,0,0,0,4.2-6.41c-1.87-8.79-14.08-1.14-16.39-12-1.13-5.34,2.48-8.89,6.46-9.74a9.43,9.43,0,0,1,4.9.31l-.16-2,2.57,0,.68,5a17.83,17.83,0,0,0,1.3,4.28l-2.4,1A16.09,16.09,0,0,0,363,333.7c-1.15-1.57-3-1.74-4.83-1.35-2.26.48-5.14,2.43-4.34,6.18,1.69,8,14,.8,16.36,11.87A8.14,8.14,0,0,1,363.77,360.48Z" transform="translate(-0.1 -95.52)"/><path class="cls-1" d="M512,249.35c0-85-114.59-153.83-255.95-153.83" transform="translate(-0.1 -95.52)"/><path class="cls-1" d="M256.05,95.52C114.69,95.52.1,164.39.1,249.35s114.59,153.82,256,153.82" transform="translate(-0.1 -95.52)"/><path class="cls-3" d="M381.09,341.7A289,289,0,0,0,413.46,331a192.52,192.52,0,0,0,26.74-13.05" transform="translate(-0.1 -95.52)"/><path class="cls-3" d="M78.08,316a193.76,193.76,0,0,0,26.59,13.33,289.33,289.33,0,0,0,32.26,11.05" transform="translate(-0.1 -95.52)"/><path class="cls-4" d="M176.84,169.49l5.47,40.13-1.58.22L178.16,191a25.3,25.3,0,0,1-.32-4.59,11.5,11.5,0,0,1-10.24,9.15c-6.42.88-12.39-3-13.4-10.46-1.14-8.4,4.08-13.64,10.7-14.54a11.13,11.13,0,0,1,11.59,6,28.8,28.8,0,0,1-.92-4.5l-.31-2.28Zm-.11,11A10.41,10.41,0,0,0,165,171.82c-6.13.83-10.07,5.9-9.14,12.72.89,6.52,6.15,10.44,12.18,9.62a10.62,10.62,0,0,0,9-11.5Z" transform="translate(-0.1 -95.52)"/><path class="cls-4" d="M209.62,186.3c-2.15,3.36-4.41,5.13-7.19,5.35-4.28.32-7.23-3-7.54-6.93l-1.26-16.61,1.58-.12,1.21,15.81c.3,3.88,2.5,6.51,6.28,6.23,5-.38,9.08-8.2,12.64-24.48l1.52.28a39.81,39.81,0,0,0-.08,9.41l1.11,14.52-1.59.13-.91-11.84a50.4,50.4,0,0,1-.08-7.6C213.85,177.57,211.58,183.15,209.62,186.3Z" transform="translate(-0.1 -95.52)"/><path class="cls-4" d="M255,164.77l.45,23.74-1.59,0,0-2.28a25.79,25.79,0,0,1,.22-4.6,11.51,11.51,0,0,1-11.23,7.9c-6.48.13-12-4.46-12.1-11.93-.16-8.48,5.63-13.09,12.32-13.21a11.11,11.11,0,0,1,10.81,7.27,27.26,27.26,0,0,1-.38-4.58l-.05-2.3Zm-1.39,10.9a10.41,10.41,0,0,0-10.67-10c-6.18.11-10.68,4.69-10.55,11.57.13,6.58,4.9,11.08,11,11a10.62,10.62,0,0,0,10.27-10.37Z" transform="translate(-0.1 -95.52)"/><path class="cls-4" d="M271.79,188.74l1.72-78.58,1.6,0-1.73,78.58Z" transform="translate(-0.1 -95.52)"/><path class="cls-4" d="M289.81,189.34,291,165.63l1.59.08-1.15,23.71Zm2.27-30.24a1.37,1.37,0,0,1-1.33-1.47,1.4,1.4,0,1,1,1.33,1.47Z" transform="translate(-0.1 -95.52)"/><path class="cls-4" d="M311.83,190.75l1.79-21.87-8-.66.12-1.38,8,.65,1-12.33,1.59.12-1,12.33,8,.65-.12,1.4-8-.65-1.79,21.87Z" transform="translate(-0.1 -95.52)"/><path class="cls-4" d="M332.53,168.77l1.88.24,6.36,22.82,11.85-20.52,1.78.23-13.27,22.25a115.67,115.67,0,0,1-12.2,16.14l-1.16-1.14c4.42-4.77,9.8-11.53,12-15.38Z" transform="translate(-0.1 -95.52)"/><path class="cls-4" d="M206.63,124.32a8.88,8.88,0,0,1,3.09.3l-.12.58a8.79,8.79,0,0,0-2.92-.31c-3.93.29-7.07,3.5-6.54,10.56l.9,12,3.24-.24,0,.56-3.24.24.53,7c.39,5.22-.88,7.81-3.2,9.53l-.36-.46c2.45-2,3.26-4.4,2.92-8.86l-.54-7.14-3.25.25,0-.57,3.24-.24-.89-11.92C199,128.77,201.93,124.67,206.63,124.32Z" transform="translate(-0.1 -95.52)"/><path class="cls-4" d="M209.6,144.07a.56.56,0,0,1-.59-.54.54.54,0,0,1,.52-.6.55.55,0,0,1,.61.53A.57.57,0,0,1,209.6,144.07Zm.44,12.34-.59-9.65.65,0,.59,9.65Z" transform="translate(-0.1 -95.52)"/><path class="cls-4" d="M220.36,147.89a3.83,3.83,0,0,1,3-2.09,2.87,2.87,0,0,1,3,2.92l.32,6.86-.65,0-.3-6.54c-.07-1.58-.93-2.68-2.48-2.61-2,.09-3.79,3.23-5.44,9.8l-.62-.13a16.3,16.3,0,0,0,.15-3.83l-.28-6,.65,0,.23,4.87a19.46,19.46,0,0,1-.06,3.09A20.73,20.73,0,0,1,220.36,147.89Z" transform="translate(-0.1 -95.52)"/><path class="cls-4" d="M231.93,150.78c-.07-3.53,2.08-5.32,4.81-5.38a4.26,4.26,0,0,1,4.47,4.33l0,.62-8.62.17c.07,3,2,4.64,4.49,4.58a4.26,4.26,0,0,0,3.49-1.9l.37.36a5,5,0,0,1-9-2.78Zm.71-.82,7.84-.17c0-2.36-1.5-3.91-3.77-3.86S232.88,147.47,232.64,150Z" transform="translate(-0.1 -95.52)"/><path class="cls-4" d="M248.87,150.89c-1.63-.45-2.69-1.38-2.7-2.84a2.86,2.86,0,0,1,3.09-2.81,3.21,3.21,0,0,1,2.48,1.09l-.44.41a2.5,2.5,0,0,0-2.08-1,2.2,2.2,0,0,0-2.4,2.16c0,1.35.82,2,2.41,2.43,1.75.44,2.61,1.3,2.61,2.68s-1.46,2.44-3.08,2.45a4.49,4.49,0,0,1-2.9-1l.37-.48a4.24,4.24,0,0,0,2.57.92c1.38,0,2.4-.74,2.39-1.87S250.45,151.33,248.87,150.89Z" transform="translate(-0.1 -95.52)"/><path class="cls-4" d="M259.27,155.19l.11-8.95-3.25,0v-.57l3.26.05.06-5.05h.65l-.06,5,3.25,0v.57l-3.25,0-.11,8.95Z" transform="translate(-0.1 -95.52)"/></svg>